<?xml version="1.0" encoding="UTF-8" standalone="no"?>
<svg width="87px" height="98px" viewBox="0 0 87 98" version="1.1" xmlns="http://www.w3.org/2000/svg" xmlns:xlink="http://www.w3.org/1999/xlink">
    <!-- Generator: Sketch 3.8.2 (29753) - http://www.bohemiancoding.com/sketch -->
    <title>Group</title>
    <desc>Created with Sketch.</desc>
    <defs></defs>
    <g id="Page-1" stroke="none" stroke-width="1" fill="none" fill-rule="evenodd">
        <g id="01" transform="translate(-50.000000, -55.000000)" fill="#232B2B">
            <g id="Group" transform="translate(50.000000, 55.000000)">
                <polygon id="Fill-1" points="2.48101266 22.2313172 2.48101266 13.660093 83.1283752 13.6455696 83.1442502 22.2167938"></polygon>
                <polygon id="Fill-2" points="82.4156816 57.203351 81.9247782 72.0619954 81.8551725 82.0710358 80.4813758 82.4680086 75.6846883 82.4680086 74.242507 82.0710358 73.6771133 72.0619954 73.1898734 57.2880708 73.1898734 45.3752553 73.6771133 32.9093404 74.1130648 25.2409873 75.1107465 24.8101266 80.4813758 24.8101266 81.4399806 25.2833472 81.9125667 32.9093404 82.4156816 45.2941663"></polygon>
                <polygon id="Fill-3" points="60.0841254 57.211823 59.6115393 72.0656262 59.5236163 82.0746666 58.1669157 82.4667983 53.3555743 82.4667983 51.9060662 82.0746666 51.3333456 72.0656262 50.8607595 57.2965428 50.8607595 45.3837273 51.3333456 32.9129713 51.7839509 25.2494593 52.7828537 24.8101266 58.1522619 24.8101266 59.113309 25.2918192 59.6005489 32.9081301 60.0841254 45.292956"></polygon>
                <polygon id="Fill-4" points="34.0212809 57.211823 33.5413679 72.0656262 33.4632142 82.0698255 32.1065136 82.4667983 27.2976145 82.4716394 25.8542121 82.0746666 25.2949242 72.0656262 24.8101266 57.2965428 24.8101266 45.3788861 25.2875973 32.9081301 25.7235488 25.2494593 26.7297785 24.8101266 32.0918598 24.8101266 33.0529069 25.2869781 33.5352622 32.9081301 34.0212809 45.2977972"></polygon>
                <polygon id="Fill-5" points="12.9448849 57.203351 12.4588661 72.0571542 12.3843758 82.0661946 11.0252329 82.4631674 6.21633383 82.4631674 4.77415256 82.0710358 4.20875889 72.0571542 3.72151899 57.2880708 3.72151899 45.3788861 4.20631658 32.9093404 4.64471038 25.2409873 5.64361324 24.8101266 11.017906 24.8101266 11.9765108 25.2833472 12.4539815 32.9093404 12.9375579 45.2893252"></polygon>
                <polygon id="Fill-6" points="2.48101266 85.6143012 83.1418079 85.5949367 83.1418079 91.3159444 2.48101266 91.335309"></polygon>
                <polygon id="Fill-7" points="82.3117936 12.462284 1.68396949 12.4768074 0 9.53581974 41.9942181 0 83.9908785 9.51645521"></polygon>
                <polygon id="Fill-8" points="86.4612703 97.3308485 0 97.3453719 0 93.0524981 86.4612703 93.0379747"></polygon>
            </g>
        </g>
    </g>
</svg>