<?xml version="1.0" encoding="UTF-8" standalone="no"?>
<svg xmlns="http://www.w3.org/2000/svg" width="711.80188pt" height="258.30469pt" viewBox="0 0 711.80188 258.30469">
  <g transform="translate(-40.045801,-148)">
    <path d="m 110.89453,363.14062 0,-141.67187 -19.687499,-0.004 0,145.25 c 0,0 0.335938,0.33594 -0.675781,1.34766 -1.011719,1.01172 -1.730469,0.19141 -1.730469,0.19141 l -1.925781,0 0,-146.79297 -19.746094,0 0,146.79297 -1.921875,0 c 0,0 -0.722656,0.82031 -1.734375,-0.19141 -1.011718,-1.01172 -0.675781,-1.34766 -0.675781,-1.34766 l 0,-145.25 -19.683594,0.004 0,141.67187 c 0,0 -1.050781,8.81641 5.140625,15.00782 6.191406,6.1914 15.21875,5.5625 15.21875,5.5625 l 27.0625,0 c 0,0 9.023438,0.6289 15.214844,-5.5625 6.19141,-6.19141 5.14453,-15.00782 5.14453,-15.00782" fill="#ab2e33"/>
    <path d="m 141.26172,350.48047 c 0,0 -0.26563,1.44922 -2.04297,1.44922 -1.77734,0 -2.30078,-1.44922 -2.30078,-1.44922 l 0,-27.04297 c 0,0 -0.19922,-0.39453 0.45703,-1.05469 0.66016,-0.66015 1.1875,-0.58984 1.1875,-0.58984 l 2.69922,0.0625 z m -2.34766,-127.5586 c -21.72656,0 -20.90625,17.83204 -20.90625,17.83204 l 0,52.05468 18.95703,0 0,-51.45703 c 0,0 0.10157,-3.05859 2.15235,-3.05859 2.05078,0 2.2539,2.87109 2.2539,2.87109 l 0,65.38281 -7.99218,0 c 0,0 -6.25,-0.71875 -10.86328,3.89454 -4.61329,4.60937 -4.50782,10.85937 -4.50782,10.85937 l 0,28.08203 c 0,0 -1.64062,11.48047 7.99219,16.60156 9.63281,5.125 16.19141,-2.86718 16.19141,-2.86718 l 0,3.6875 18.03906,0 0,-126.46094 c 0,0 0.40625,-17.42188 -21.31641,-17.42188" fill="#ab2e33"/>
    <path d="m 294.91016,373.84375 c 0,0 -0.28907,1.5625 -2.23829,1.5625 -1.95312,0 -2.53125,-1.5625 -2.53125,-1.5625 l 0,-29.19922 c 0,0 -0.21875,-0.42578 0.50391,-1.14062 0.72656,-0.70704 1.30469,-0.63672 1.30469,-0.63672 l 2.96094,0.0703 z m -2.57813,-137.71484 c -23.86719,0 -22.96875,19.25 -22.96875,19.25 l 0,56.19921 20.82813,0 0,-55.55078 c 0,0 0.11328,-3.30468 2.36718,-3.30468 2.25,0 2.47657,3.09765 2.47657,3.09765 l 0,70.58594 -8.78125,0 c 0,0 -6.86719,-0.76953 -11.9336,4.20703 -5.07031,4.98047 -4.95703,11.72656 -4.95703,11.72656 l 0,30.31641 c 0,0 -1.80078,12.39062 8.78516,17.92187 10.58203,5.53516 17.78906,-3.09375 17.78906,-3.09375 l 0,3.98047 19.8125,0 0,-136.52734 c 0,0 0.45312,-18.80859 -23.41797,-18.80859" fill="#ab2e33"/>
    <path d="m 209.75781,386.98828 0,-154.63672 -18.88281,0 0,124.56641 c 0,0 0.64062,2.77734 -1.99609,2.77734 -2.63672,0 -2.35157,-2.77734 -2.35157,-2.77734 l 0,-124.56641 -18.88281,0 c 0,0 0.14063,123.85156 0.14063,126.91406 0,3.06641 0.35546,4.77735 0.92578,7.125 0.57031,2.35547 1.78125,7.26954 10.26172,8.625 8.48046,1.35547 11.75781,-4.27343 11.75781,-4.27343 l 0,15.10547 c 0,0 0.42969,2.0664 -1.92188,2.0664 -2.35156,0 -2.28125,-1.92187 -2.28125,-1.92187 l 0,-6.19922 -19.02734,0 0,6.125 c 0,0 -1.14063,17.38672 21.02344,17.38672 22.16406,0 21.23437,-16.31641 21.23437,-16.31641" fill="#ab2e33"/>
    <path d="m 241.6875,236.4375 0,80.6875 c 0,5.0625 -4.625,4.6875 -4.625,4.6875 l 0,-88.1875 c 0,0 -1,-0.0625 1.6875,-0.0625 3.3125,0 2.9375,2.875 2.9375,2.875 m -0.125,127.4375 c 0,0 -0.1875,2.5 -1.9375,2.5 l -2.4375,0 0,-29 1.625,0 c 0,0 2.75,-0.0625 2.75,3.3125 z m 19.375,-29 c 0,-3.4375 -0.625,-5.75 -2.5625,-8.25 -1.9375,-2.5 -5.5625,-4.5 -5.5625,-4.5 0,0 2.1875,-0.625 5.4375,-3.4375 3.25,-2.8125 2.875,-8.625 2.875,-8.625 l 0,-69.6875 c 0,0 0.28125,-10.65625 -4.6875,-15.625 -4.96875,-4.96875 -14.68359,-5.35156 -14.68359,-5.35156 l -24.25391,0 0,161.85156 22.3125,0 c 9.625,0 14.25,-2.375 18.0625,-7.375 3.8125,-5 3.0625,-12.625 3.0625,-12.625 z m 0,0" fill="#ab2e33"/>
    <path d="m 343.88672,257.89062 0,53.29297 19.1914,0 0,-52.38672 c 0,0 0.26954,-17.64453 -21.46484,-17.64453 -21.73828,0 -20.82812,17.73828 -20.82812,17.73828 l 0,108.76954 c 0,0 -1.27344,17.91796 21.1914,17.91796 22.46485,0 20.91797,-17.73437 20.91797,-17.73437 l 0,-27.19141 -18.91797,0 0,28.28516 c 0,0 0.0899,1.54687 -1.91015,1.54687 -2,0 -2.27344,-1.54687 -2.27344,-1.54687 l 0,-111.32422 c 0,0 0.0937,-1.45312 2,-1.45312 1.91015,0 2.09375,1.73046 2.09375,1.73046" fill="#ab2e33"/>
    <path d="m 413.05078,327.69922 c -3.00781,-3.625 -6.42578,-4.98828 -6.42578,-4.98828 0,0 3.28125,-0.13672 6.28906,-3.96485 3.00781,-3.82812 2.73438,-8.67968 2.73438,-8.67968 l 0,-75.65625 -20.36719,0 0,85.90625 c 0,0 0,1.70703 -2.05078,1.70703 l -2.45703,-0.0664 0,-108.52344 -20.16407,0 0,172.62891 20.09375,0 0,-47.97656 3.07422,0 c 0,0 0.41016,0 0.95703,0.61328 0.54688,0.61719 0.54688,1.36719 0.54688,1.36719 l 0,45.99609 20.50391,0 0,-49.75391 c 0,0 0.27343,-4.98828 -2.73438,-8.60937" fill="#ab2e33"/>
    <path d="m 477.5,215.00391 c -16.66797,0 -12.66406,0 -31.08203,0 -18.41797,0 -18.16797,16.33203 -18.16797,16.33203 l 0,156.16406 14.82812,0 0,-157.58203 c 0,0 -0.0586,-4.46875 3.98829,-4.46875 4.04687,0 6.70312,0 6.70312,0 l 0,162.05078 14.80078,0 0,-161.99219 c 0,0 2.66016,0.004 6.70313,0.004 4.04687,0 3.98828,4.46875 3.98828,4.46875 l 0,157.51953 14.65625,0 0,-154.91406 c 0,0 0.25,-17.58203 -16.41797,-17.58203" fill="#000"/>
    <path d="m 526.58203,368.50391 c 0,0 0,5.58593 -5.08594,5.58593 -5.08203,0 -5.41406,-5.41797 -5.41406,-5.41797 l 0,-29.58203 c 0,0 0.082,-2.08593 1.41406,-3.41797 1.33594,-1.33203 3.16797,-1.58203 3.16797,-1.58203 l 5.91797,0 z m -5.08594,-137.08204 c -20.5,0 -19.34375,16.16016 -19.34375,16.16016 l 0,61.41016 13.80469,0 0,-60.40625 c 0,0 -0.043,-6.75 5.125,-6.75 5.16797,0 5.5,5.08593 5.5,5.08593 l 0,77.16797 -12.16797,0 c -12.16797,0 -12.25,12.08203 -12.25,12.08203 l 0,34.75 c 0,13 7.75,13.91407 15.25,13.66407 7.5,-0.25 10.08203,-6.41407 10.08203,-6.41407 l 0,5.91407 13.08594,0 0,-136 c 0,0 1.41406,-16.66407 -19.08594,-16.66407" fill="#000"/>
    <path d="m 570.07422,247.95312 0,58.20313 13.24219,0 0,-56.28906 c 0,0 0.87109,-15.85547 -18.82032,-15.85547 -19.6914,0 -17.77734,17.60156 -17.77734,17.60156 l 0,108.91406 c 0,0 -1.39063,16.55469 17.95312,16.55469 19.33985,0 18.29688,-12.54687 18.29688,-21.60937 l 0,-24.57032 -13.07031,0 0,32.06641 c 0,0 -0.52344,4.70312 -4.70703,4.70312 -4.1836,0 -5.40235,-3.66015 -5.40235,-6.79687 l 0,-112.92188 c 0,0 0.52344,-4.8789 5.05469,-4.8789 4.53125,0 5.23047,4.8789 5.23047,4.8789" fill="#000"/>
    <path d="m 621.82812,239.41406 c -8.75781,0 -12.14453,4.57422 -12.89453,5.79688 l 0,-25.83594 -14.46484,0 0,172.52344 14.46484,0 0,-135.70703 c 0.39453,-2.22657 1.64844,-4.05469 5.40235,-4.05469 5.05468,0 5.05468,6.10156 5.05468,6.10156 l 0,133.30859 13.76563,0 0,-138.53906 c 0,0 0.87109,-13.59375 -11.32813,-13.59375" fill="#000"/>
    <path d="m 689.58984,238.44922 c -8.88281,0 -12.32031,4.59765 -13.08203,5.83203 l 0,-4.82031 -14.67187,0 0,152.43359 14.67187,0 0,-136.56641 c 0.40235,-2.23828 1.67188,-4.07812 5.48047,-4.07812 5.125,0 5.125,6.13672 5.125,6.13672 l 0,134.16015 13.96484,0 0,-139.41796 c 0,0 0.88672,-13.67969 -11.48828,-13.67969" fill="#000"/>
    <path d="m 654.98047,375.16406 -12.19531,0 0,-128.42969 12.19531,0 z m 0,0" fill="#000"/>
    <path d="m 655.94141,233.40234 c 0,2.9375 -3.16016,5.31641 -7.0586,5.31641 -3.89844,0 -7.05859,-2.37891 -7.05859,-5.31641 0,-2.93359 3.16015,-5.3164 7.05859,-5.3164 3.89844,0 7.0586,2.38281 7.0586,5.3164" fill="#000"/>
    <path d="m 723.96484,252.55859 c 0,0 0.26953,-6.01953 5.21875,-6.01953 4.94922,0 5.48438,5.48828 5.48438,5.48828 l 0,76.78907 -10.70313,0 z m 10.70313,101.27344 0,21.40625 c 0,0 -0.26563,4.67969 -5.48438,4.67969 -5.21875,0 -5.21875,-4.28125 -5.21875,-8.5586 l 0,-31.70703 24.75,0 0,-84.28125 c 0,0 1.33985,-18.73047 -19.80078,-18.73047 -21.13672,0 -18.86328,18.9961 -18.86328,18.9961 l 0,120.26953 c 0,0 0.26953,14.44531 18.99609,14.44531 18.73047,0 19.80079,-10.96875 19.80079,-17.12109 l 0,-19.39844 z m 0,0" fill="#000"/>
    <path d="m 431.4375,157.46484 5.54687,14.23438 -10.75,0 z m -12.70703,26.66797 3.01953,0 3.64844,-10.14453 12.41797,0 3.64843,10.14453 5.07422,0 -11.8789,-32.80859 -9.15625,0 0,1.07031 c 1.94531,0.28906 3.73437,0.33984 3.73437,2.29297 0,0.33594 -0.51953,2.04297 -0.82031,2.86719 z m 0,0" fill="#000"/>
    <path d="m 479.59375,158.00781 c 0,-3.51562 0,-4.39062 3.27344,-4.39062 4.08203,0 7.12109,1.46093 7.12109,6.72656 0,5.46094 -4.44141,6.33203 -7.60156,6.33203 l -2.79297,0 z m -5.34766,26.125 5.34766,0 0,-15.16406 3.03516,0 8.61718,15.16406 5.58985,0 -8.94532,-16.04297 c 3.84375,-0.63672 7.4375,-2.48828 7.4375,-8.03906 0,-8.72656 -10.07031,-8.72656 -13.73437,-8.72656 l -11.97266,0 0,1.07031 c 4.52735,0.73438 4.625,0.73438 4.625,5.55859 z m 0,0" fill="#000"/>
    <path d="m 547.00781,179.23047 c -1.50781,1.02344 -3.89062,2.48828 -8.51953,2.48828 -6.76953,0 -9.44531,-6.92188 -9.44531,-14.625 0,-6.08984 1.16797,-13.74219 8.32031,-13.74219 5.25781,0 7.9375,4.77344 8.13672,7.26563 l 1.41406,0 -0.28906,-8.14844 C 544.37891,151.73828 541.20312,151 536.87109,151 c -10.84375,0 -13.58203,7.22266 -13.58203,16.09375 0,10.96875 3.8125,17.35156 14.3711,17.35156 5.01171,0 7.69921,-1.125 9.34765,-1.84765 z m 0,0" fill="#000"/>
    <path d="m 576.14062,184.40625 5.35157,0 0,-15.95313 13.23828,0 0,15.95313 5.36328,0 0,-32.8125 -5.36328,0 0,14.57812 -13.23828,0 0,-15.11718 -10.22657,1.1289 0,1.0625 c 4.57813,0.48438 4.875,0.92969 4.875,4.78907 z m 0,0" fill="#000"/>
    <path d="m 628.00781,183.96094 13.61719,0 0,-1.22266 c -3.41016,0 -4.14063,-0.73047 -4.14063,-4.53516 l 0,-20.95703 c 0,-3.80078 0.73047,-4.52734 4.14063,-4.52734 l 0,-1.22266 -13.61719,0 0,1.22266 c 3.44922,0 4.13281,0.72656 4.13281,4.52734 l 0,20.95703 c 0,3.80469 -0.68359,4.53516 -4.13281,4.53516 z m 0,0" fill="#000"/>
    <path d="m 678.40234,184.13281 4.23438,0 11.89453,-32.80859 -3.16797,0 -9.30859,26.70703 -0.0977,0 -9.53906,-26.70703 -9.44922,0 0,1.07031 c 3.89844,0.73438 4.33594,0.73438 5.89453,5.16016 z m 0,0" fill="#000"/>
    <path d="m 722.28516,184.13281 19.42968,0 0.14063,-7.0664 -1.35547,0 c -0.28906,3.80078 -1.60938,4.77343 -4.37891,4.77343 l -5.41015,0 c -2.4336,0 -3.06641,-0.0937 -3.06641,-2.83203 l 0,-10.86328 5.89844,0 c 2.91406,0 3.99219,1.54688 3.99219,4.17969 l 1.35546,0 0,-10.22656 -1.35546,0 c -0.30079,1.60937 -0.64454,3.74609 -3.99219,3.74609 l -5.89844,0 0,-9.69922 c 0,-2.33594 0.63281,-2.52734 3.06641,-2.52734 l 3.78906,0 c 3.22656,0 5.26562,1.01953 5.26562,4.92578 l 1.36719,0 -0.13672,-7.21875 -23.33984,0 0,1.07031 c 4.48437,0.73438 4.62891,0.73438 4.62891,5.55859 z m 0,0" fill="#000"/>
    <path d="m 352.19141,184.14844 5.42578,0 0,-30.55078 3.33593,0 c 3.79297,0 5.375,1.16406 5.375,4.9414 l 1.37891,0 -0.19922,-7.23047 -25.20703,0 -0.20312,7.08203 1.37109,0 c 0.29687,-3.57031 1.42187,-4.79296 5.32422,-4.79296 l 3.39844,0 z m -48.06641,0 19.64844,0 0.14843,-7.07032 -1.375,0 c -0.30078,3.80469 -1.63671,4.77735 -4.43359,4.77735 l -5.46875,0 c -2.46094,0 -3.10547,-0.0977 -3.10547,-2.83203 l 0,-10.87891 5.96485,0 c 2.95312,0 4.03906,1.54688 4.03906,4.19141 l 1.36719,0 0,-10.24219 -1.36719,0 c -0.30469,1.60547 -0.64063,3.75 -4.03906,3.75 l -5.96485,0 0,-9.70703 c 0,-2.33594 0.64453,-2.53906 3.10547,-2.53906 l 3.83594,0 c 3.25,0 5.32422,1.02734 5.32422,4.9414 l 1.37109,0 -0.13672,-7.23047 -23.59765,0 0,1.07032 c 4.53906,0.73437 4.68359,0.73437 4.68359,5.5664 z m -48.41016,0 3.08985,0 0,-27.76563 0.10547,0 16.2539,27.76563 4.73828,0 0,-32.83985 -3.10937,0 0,26.53907 -0.10156,0 -15.51172,-26.53907 -10.39063,0 0,1.07032 c 4.23438,0.83203 4.92578,0.63671 4.92578,5.17578 z m -38.8125,-26.15625 c 0,-3.51953 0,-4.39453 3.30469,-4.39453 4.13281,0 7.18359,1.46484 7.18359,6.73828 0,5.46875 -4.48046,6.33984 -7.68359,6.33984 l -2.80469,0 z m -5.42187,26.15625 5.42187,0 0,-15.17188 3.05469,0 8.71875,15.17188 5.66406,0 -9.0625,-16.0586 c 3.88672,-0.6289 7.53125,-2.49609 7.53125,-8.04687 0,-8.73438 -10.1914,-8.73438 -13.89453,-8.73438 l -12.11328,0 0,1.07032 c 4.57813,0.73437 4.67969,0.73437 4.67969,5.5664 z m -42.30469,0 19.64844,0 0.14844,-7.07032 -1.375,0 c -0.30079,3.80469 -1.6211,4.77735 -4.4336,4.77735 l -5.46875,0 c -2.46094,0 -3.10937,-0.0977 -3.10937,-2.83203 l 0,-10.87891 5.97265,0 c 2.95703,0 4.03516,1.54688 4.03516,4.19141 l 1.38281,0 0,-10.24219 -1.38281,0 c -0.30078,1.60547 -0.63672,3.75 -4.03516,3.75 l -5.97265,0 0,-9.70703 c 0,-2.33594 0.64843,-2.53906 3.10937,-2.53906 l 3.84766,0 c 3.24609,0 5.3125,1.02734 5.3125,4.9414 l 1.375,0 -0.14453,-7.23047 -23.58203,0 0,1.07032 c 4.52343,0.73437 4.67187,0.73437 4.67187,5.5664 z m -35.50391,0 5.41016,0 0,-30.55078 3.35547,0 c 3.78516,0 5.36719,1.16406 5.36719,4.9414 l 1.37109,0 -0.1875,-7.23047 -25.22265,0 -0.19141,7.08203 1.37109,0 c 0.30078,-3.57031 1.42578,-4.79296 5.32422,-4.79296 l 3.40234,0 z m -54.230464,0 3.105469,0 0,-27.76563 0.09766,0 16.246094,27.76563 4.730461,0 0,-32.83985 -3.10156,0 0,26.53907 -0.0977,0 -15.51172,-26.53907 -10.398437,0 0,1.07032 c 4.238281,0.83203 4.929687,0.63671 4.929687,5.17578 z m -34.871094,0 13.789063,0 0,-1.21875 c -3.445313,0 -4.183594,-0.73438 -4.183594,-4.54297 l 0,-20.97656 c 0,-3.8125 0.738281,-4.54688 4.183594,-4.54688 l 0,-1.21875 -13.789063,0 0,1.21875 c 3.492188,0 4.1875,0.73438 4.1875,4.54688 l 0,20.97656 c 0,3.80859 -0.695312,4.54297 -4.1875,4.54297 z m 0,0" fill="#000"/>
  </g>
</svg>
